<svg viewBox="0 0 26 26" xmlns="http://www.w3.org/2000/svg" xml:space="preserve" style="fill-rule:evenodd;clip-rule:evenodd;stroke-linejoin:round;stroke-miterlimit:2"><path d="M0 13C.008 5.871 5.871.008 13 0c7.132 0 13 5.868 13 13s-5.868 13-13 13S0 20.132 0 13Zm18.753-4.707h-2.615V7.77c0-.86-.708-1.568-1.569-1.568h-3.138c-.861 0-1.569.708-1.569 1.568v.523H7.247a.525.525 0 0 0-.522.523c0 .287.236.523.522.523h.523v9.414c0 .573.473 1.045 1.046 1.045h8.368c.573 0 1.046-.472 1.046-1.045V9.339h.523a.525.525 0 0 0 .522-.523.525.525 0 0 0-.522-.523Zm-3.661 7.845a.525.525 0 0 1-.523.523.525.525 0 0 1-.523-.523v-4.184c0-.287.236-.523.523-.523.287 0 .523.236.523.523v4.184Zm-3.138 0a.525.525 0 0 1-.523.523.525.525 0 0 1-.523-.523v-4.184c0-.287.236-.523.523-.523.287 0 .523.236.523.523v4.184Zm3.138-7.845h-4.184V7.77c0-.286.236-.523.523-.523h3.138c.287 0 .523.237.523.523v.523Z"/></svg>