<?xml version="1.0" encoding="UTF-8"?><svg id="Layer_2" xmlns="http://www.w3.org/2000/svg" viewBox="0 0 230.6133 90.3785"><g id="Components"><g id="_27dfb264-9a0f-49d9-a542-81956f53ab08_7"><path d="M63.4785,2.7501c0,.1035-.0127.29-.0386.5576-.0259.2686-.0693.5674-.1299.8955-.061.3291-.1343.6709-.2207,1.0254s-.1943.6836-.3242.9854c-.1299.3037-.2812.5498-.4541.7402s-.3721.2852-.5967.2852h-10.9761l-1.8164,9.0303h10.3271c.2422,0,.4155.0947.519.2852.104.1904.1558.4414.1558.752,0,.1221-.0176.3164-.0518.584-.0352.2686-.0825.5625-.1431.8828s-.1387.6572-.2334,1.0117c-.0952.3545-.2075.6748-.3374.96-.1294.2852-.2812.5234-.4541.7139s-.3721.2852-.5967.2852h-10.2495l-2.4912,12.5332c-.0347.1904-.1211.3545-.2593.4932-.1387.1387-.3501.251-.6357.3369-.2856.0869-.6533.1562-1.103.208-.4497.0518-1.0034.0771-1.6606.0771-.6743,0-1.2236-.0254-1.6475-.0771-.4243-.0518-.7568-.1211-.999-.208-.2427-.0859-.4067-.1982-.4932-.3369s-.1035-.3027-.0518-.4932l6.0718-30.4629c.1558-.7617.4673-1.3105.9341-1.6484.4673-.3369.9863-.5059,1.5571-.5059h15.7246c.2939,0,.48.0957.5576.2852.0781.1914.1167.459.1167.8047Z" style="fill:#fff; stroke-width:0px;"/><path d="M69.165,34.3556c-.0347.1729-.1167.3242-.2466.4541-.1294.1289-.3286.2373-.5967.3242-.2686.0869-.6187.1514-1.0508.1943-.4326.043-.96.0645-1.583.0645-.6401,0-1.1636-.0215-1.5698-.0645-.4067-.043-.7266-.1074-.96-.1943s-.3853-.1953-.4541-.3242c-.0693-.1299-.0869-.2813-.0518-.4541l4.5928-23.0947c.0342-.1719.1167-.3242.2466-.4541.1294-.1289.3281-.2412.5967-.3369.2681-.0947.6138-.1689,1.0381-.2207.4233-.0518.9556-.0781,1.5957-.0781.6396,0,1.1631.0264,1.5698.0781.4062.0518.7266.126.96.2207.2334.0957.3848.208.4541.3369.0688.1299.0864.2822.0518.4541l-4.5928,23.0947ZM75.8599,3.4249c-.1211.6406-.2856,1.1807-.4932,1.6221-.2075.4404-.4844.7959-.8301,1.0635-.3462.2686-.77.459-1.2715.5713-.502.1123-1.125.168-1.8687.168-.7261,0-1.3188-.0557-1.7773-.168s-.8042-.3027-1.0376-.5713c-.2339-.2676-.3682-.623-.4023-1.0635-.0352-.4414.0171-.9814.1558-1.6221.1206-.623.2852-1.1504.4927-1.583.208-.4316.4844-.7871.8306-1.0635.3457-.2764.7695-.4756,1.2715-.5967C71.4312.0606,72.0537,0,72.7979,0c.7266,0,1.3188.0605,1.7773.1816s.8047.3203,1.0381.5967.3633.6318.3892,1.0635c.0259.4326-.022.96-.1426,1.583Z" style="fill:#fff; stroke-width:0px;"/><path d="M94.8823,12.2218c0,.207-.0303.5146-.0908.9209-.061.4062-.1519.8174-.2725,1.2324-.1211.415-.2642.7744-.4282,1.0771-.1646.3027-.3501.4541-.5576.4541-.2251,0-.4893-.082-.7915-.2471-.3032-.1641-.6709-.3457-1.103-.5449-.4326-.1982-.9385-.376-1.5181-.5312-.5796-.1562-1.2583-.2344-2.0366-.2344-.606,0-1.1465.0781-1.6221.2344-.4756.1553-.8691.3672-1.1807.6357-.311.2676-.5493.583-.7134.9463-.1646.3633-.2466.7529-.2466,1.168,0,.5361.2207.9863.6616,1.3496.4414.3633.9902.7051,1.6479,1.0244.6572.3203,1.3662.6533,2.1274.999.7612.3467,1.4702.7783,2.1279,1.2979.6572.5186,1.2021,1.1504,1.6348,1.8936.4321.7441.6489,1.6787.6489,2.8027,0,1.3154-.251,2.5303-.7529,3.6455-.5015,1.1162-1.2324,2.0811-2.1924,2.8936-.96.8135-2.1279,1.4492-3.5029,1.9072-1.3755.458-2.9282.6875-4.6577.6875-.8306,0-1.6216-.0605-2.3745-.1816-.7524-.1211-1.4268-.2686-2.0239-.4414-.5967-.1719-1.1025-.3711-1.5176-.5967-.4155-.2246-.7266-.4316-.9346-.6221-.1387-.1387-.2378-.2861-.2983-.4414-.0605-.1562-.0908-.3545-.0908-.5967,0-.1562.0132-.3545.0391-.5967s.0688-.5107.1299-.8047c.0601-.2939.1294-.5879.2075-.8818.0776-.2939.1685-.5625.2725-.8047.1035-.2422.2158-.4365.3374-.584.1206-.1465.2505-.2207.3892-.2207.2422,0,.5098.1035.8042.3115.2939.208.6748.4375,1.1416.6875.4673.251,1.042.4844,1.7256.7012.6836.2158,1.5352.3242,2.5562.3242.709,0,1.3271-.082,1.8555-.2471.5273-.1641.9639-.3926,1.3101-.6875.3457-.2939.6011-.6309.7656-1.0117.1641-.3809.2466-.7871.2466-1.2197,0-.6055-.2124-1.0986-.6357-1.4795-.4243-.3799-.9561-.7344-1.5957-1.0635-.6406-.3281-1.3364-.666-2.0889-1.0117-.7529-.3457-1.4492-.7695-2.0889-1.2715-.6401-.502-1.1724-1.124-1.5962-1.8682-.4238-.7441-.6357-1.6777-.6357-2.8027,0-1.2285.2339-2.3701.7007-3.4248.4673-1.0557,1.1504-1.9766,2.0498-2.7637s1.9893-1.4014,3.2695-1.8428c1.2803-.4404,2.7334-.6611,4.3594-.6611.7266,0,1.4312.0479,2.1147.1426.6831.0947,1.2974.2207,1.8423.376.5449.1562,1.0205.3291,1.4272.5195.4062.1904.6963.3799.8691.5703.1904.1729.2856.4668.2856.8828Z" style="fill:#fff; stroke-width:0px;"/><path d="M118.1357,12.7403c0,.3984-.0479.8477-.1436,1.3496-.0947.502-.2197.9775-.376,1.4268-.1553.4502-.3506.8262-.584,1.1289s-.4883.4541-.7646.4541c-.2598,0-.5107-.1035-.7529-.3115s-.5405-.4414-.895-.7002c-.355-.2598-.8003-.4971-1.3364-.7139-.5361-.2158-1.2285-.3242-2.0757-.3242-.8999,0-1.7041.1992-2.4131.5967-.7095.3984-1.3281.9121-1.8555,1.5439-.5278.6318-.9644,1.3496-1.3105,2.1533-.3462.8047-.6313,1.6182-.856,2.4395-.2251.8223-.3853,1.6084-.48,2.3613-.0957.752-.1431,1.4053-.1431,1.959,0,1.4014.3071,2.4648.9214,3.1914.6138.7266,1.5781,1.0898,2.8931,1.0898.9688,0,1.7988-.125,2.4912-.376.6914-.251,1.2842-.5273,1.7773-.8301s.9165-.5752,1.2715-.8174c.3545-.2422.6787-.3633.9731-.3633.1724,0,.2983.0771.376.2334.0781.1553.1167.3809.1167.6748s-.0347.6611-.1035,1.1025c-.0693.4414-.1602.8867-.2725,1.3359-.1128.4502-.2427.8691-.3892,1.2588-.1475.3896-.3374.6963-.5708.9209-.2339.2256-.6016.4805-1.103.7656-.502.2852-1.0811.541-1.7383.7656-.6577.2246-1.3716.4062-2.1411.5449-.7695.1387-1.5698.208-2.3999.208-2.958,0-5.1729-.748-6.6431-2.2451-1.4702-1.4961-2.2056-3.7061-2.2056-6.6299,0-1.0547.0996-2.2139.2988-3.4766.1982-1.2627.5229-2.5303.9727-3.8018s1.0337-2.5039,1.7515-3.6973c.7178-1.1934,1.5962-2.249,2.6338-3.166,1.0381-.917,2.2402-1.6514,3.6069-2.2051,1.3662-.5537,2.9409-.8311,4.7227-.8311.6914,0,1.3662.0518,2.0239.1562.6572.1035,1.2627.2461,1.8164.4277.5527.1816,1.042.3936,1.4658.6357s.7393.4629.9473.6621c.207.1992.3408.376.4023.5313.0596.1562.0908.3467.0908.5713Z" style="fill:#fff; stroke-width:0px;"/><path d="M140.0566,34.3809c-.0693.3633-.3418.623-.8174.7783-.4766.1562-1.2412.2334-2.2969.2334-.5361,0-.9727-.0166-1.3105-.0518-.3369-.0342-.6094-.0908-.8164-.168-.208-.0781-.3418-.1816-.4023-.3115-.0615-.1299-.0742-.29-.0391-.4805l.7266-3.71c-.2598.5537-.6748,1.1367-1.2461,1.751-.5703.6143-1.2451,1.1719-2.0234,1.6738-.7783.502-1.6396.917-2.582,1.2451-.9434.3291-1.916.4932-2.9189.4932-1.3848,0-2.5342-.2422-3.4512-.7266-.917-.4844-1.6523-1.1367-2.2061-1.959-.5537-.8213-.9473-1.7598-1.1807-2.8154-.2334-1.0547-.3496-2.1621-.3496-3.3213,0-1.0898.1035-2.2793.3115-3.5674.207-1.2891.5273-2.5732.96-3.8535.4316-1.2803.9854-2.5127,1.6602-3.6982.6748-1.1846,1.4834-2.2354,2.4268-3.1523.9424-.917,2.0234-1.6475,3.2432-2.1924,1.2197-.5449,2.5986-.8174,4.1387-.8174,1.4355,0,2.707.2979,3.8145.8945,1.1064.5977,2.0762,1.4668,2.9062,2.6084l.415-2.0498c.0693-.3633.3418-.623.8174-.7783.4756-.1562,1.2412-.2344,2.2969-.2344.5186,0,.9512.0225,1.2969.0654s.6182.1035.8174.1816c.1982.0781.333.1816.4023.3115.0684.1299.0859.2813.0518.4541l-4.6445,23.1973ZM136.8389,18.1378c-.6055-.9512-1.2764-1.665-2.0107-2.1406-.7354-.4756-1.5879-.7139-2.5557-.7139-.7266,0-1.3936.1729-1.998.5186-.6064.3467-1.1426.8096-1.6094,1.3887-.4668.5801-.8779,1.25-1.2324,2.0107-.3545.7617-.6484,1.5527-.8818,2.374-.2334.8223-.4072,1.6523-.5195,2.4912-.1123.8398-.168,1.6133-.168,2.3223,0,.5195.0381,1.0127.1162,1.4795s.2207.8818.4287,1.2451c.207.3633.4834.6533.8301.8691.3457.2168.7871.3252,1.3232.3252.7607,0,1.5391-.2295,2.335-.6885.7959-.458,1.54-1.0801,2.2314-1.8682.6924-.7871,1.3018-1.7031,1.8301-2.75.5273-1.0469.9121-2.167,1.1543-3.3604l.7266-3.5029Z" style="fill:#fff; stroke-width:0px;"/><path d="M165.9932,10.8458c0,.1211-.0176.3379-.0527.6494-.0342.3105-.0859.6738-.1553,1.0898-.0693.415-.1553.8428-.2598,1.2842-.1035.4414-.2207.8525-.3496,1.2324-.1299.3809-.2773.6924-.4414.9336-.165.2432-.3418.3633-.5322.3633-.1553,0-.3115-.0293-.4668-.0908-.1562-.0596-.3291-.1201-.5195-.1816-.1904-.0596-.3975-.1201-.6221-.1816-.2256-.0596-.4844-.0898-.7783-.0898-.5889,0-1.2158.2246-1.8818.6738-.666.4502-1.3018,1.043-1.9072,1.7773-.6055.7363-1.1455,1.5918-1.6211,2.5693-.4766.9775-.8174,2.0029-1.0254,3.0752l-2.0762,10.4053c-.0342.1729-.1162.3242-.2461.4541-.1299.1289-.3291.2373-.5967.3242-.2686.0869-.6191.1514-1.0508.1943-.4326.043-.96.0645-1.583.0645-.6406,0-1.1641-.0215-1.5703-.0645s-.7266-.1074-.96-.1943-.3848-.1953-.4541-.3242c-.0693-.1299-.0869-.2813-.0518-.4541l4.6191-23.1719c.0342-.1729.1123-.3242.2334-.4541s.2979-.2334.5322-.3115c.2334-.0781.5352-.1387.9082-.1816.3711-.043.8174-.0654,1.3359-.0654.5361,0,.9727.0225,1.3105.0654.3369.043.6006.1035.791.1816s.3154.1816.376.3115.0742.2813.0391.4541l-.7266,3.6846c.415-.7441.8955-1.4277,1.4404-2.0498.5449-.623,1.124-1.1631,1.7383-1.6221.6143-.458,1.25-.8174,1.9072-1.0771.6572-.2588,1.3066-.3887,1.9463-.3887.2598,0,.5234.0176.791.0518.2686.0352.5195.0781.7529.1299s.4414.1162.623.1943.3242.1602.4277.2461c.1035.1045.1562.2686.1562.4932Z" style="fill:#c1d72d; stroke-width:0px;"/><path d="M172.1719,34.3556c-.0342.1729-.1162.3242-.2461.4541-.1299.1289-.3291.2373-.5967.3242-.2686.0869-.6191.1514-1.0508.1943-.4326.043-.96.0645-1.583.0645-.6406,0-1.1641-.0215-1.5703-.0645s-.7266-.1074-.96-.1943-.3848-.1953-.4541-.3242c-.0693-.1299-.0869-.2813-.0518-.4541l4.5928-23.0947c.0342-.1719.1172-.3242.2471-.4541.1289-.1289.3281-.2412.5967-.3369.2676-.0947.6133-.1689,1.0381-.2207.4229-.0518.9551-.0781,1.5957-.0781.6396,0,1.1631.0264,1.5693.0781.4062.0518.7266.126.96.2207.2334.0957.3848.208.4541.3369.0693.1299.0869.2822.0518.4541l-4.5928,23.0947ZM178.8672,3.4249c-.1211.6406-.2861,1.1807-.4932,1.6221-.208.4404-.4844.7959-.8301,1.0635-.3467.2686-.7705.459-1.2715.5713-.502.1123-1.125.168-1.8691.168-.7256,0-1.3184-.0557-1.7773-.168-.458-.1123-.8037-.3027-1.0371-.5713-.2344-.2676-.3682-.623-.4023-1.0635-.0352-.4414.0166-.9814.1553-1.6221.1211-.623.2852-1.1504.4932-1.583.208-.4316.4844-.7871.8301-1.0635s.7695-.4756,1.2715-.5967S175.0605,0,175.8047,0c.7266,0,1.3193.0605,1.7773.1816.459.1211.8047.3203,1.0381.5967s.3633.6318.3896,1.0635c.0254.4326-.0225.96-.1426,1.583Z" style="fill:#c1d72d; stroke-width:0px;"/><path d="M202.9229,16.295c0,1.2461-.2812,2.3662-.8428,3.3604-.5625.9951-1.4365,1.8516-2.6211,2.5693s-2.6895,1.2666-4.5146,1.6475-4.001.5703-6.5264.5703h-2.3867c-.0693.3984-.1211.792-.1562,1.1807-.0342.3896-.0518.749-.0518,1.0771,0,1.4014.3633,2.457,1.0898,3.166s1.8945,1.0635,3.5029,1.0635c1.1416,0,2.167-.082,3.0752-.2461.9082-.1641,1.7041-.3457,2.3867-.5449.6836-.1992,1.25-.3809,1.7002-.5449.4492-.1641.7783-.2471.9863-.2471.207,0,.3535.0615.4404.1816.0869.1221.1299.3115.1299.5713,0,.2939-.0254.6318-.0781,1.0117-.0518.3809-.125.7568-.2197,1.1289-.0957.3721-.2168.7227-.3633,1.0508-.1475.3291-.3164.5801-.5068.7529-.207.207-.5879.415-1.1416.6221-.5537.208-1.2197.3984-1.998.5713-.7783.1729-1.6514.3154-2.6201.4277-.9697.1123-1.9551.1689-2.958.1689-1.6611,0-3.1104-.1729-4.3467-.5186-1.2373-.3457-2.2705-.874-3.1006-1.583-.8311-.709-1.4531-1.6133-1.8682-2.7119-.415-1.0977-.623-2.4004-.623-3.9053,0-1.1582.1074-2.4004.3242-3.7236.2158-1.3232.5664-2.6289,1.0508-3.918.4844-1.2881,1.1074-2.5205,1.8682-3.6973.7617-1.1768,1.6826-2.21,2.7637-3.1006,1.0811-.8916,2.3311-1.6045,3.75-2.1416,1.418-.5352,3.0352-.8037,4.8516-.8037,1.5742,0,2.9277.1855,4.0615.5576,1.1328.3721,2.0625.8652,2.7891,1.4795.7266.6143,1.2676,1.3145,1.6221,2.1016s.5312,1.5957.5312,2.4258ZM196.5137,16.7882c0-.6914-.2725-1.2666-.8174-1.7256-.5449-.458-1.3359-.6875-2.374-.6875-.8652,0-1.6387.1553-2.3223.4668s-1.2842.7314-1.8037,1.2588c-.5186.5273-.9639,1.1504-1.3359,1.8682s-.6709,1.4834-.8955,2.2969h2.1797c1.3838,0,2.543-.0908,3.4775-.2725.9336-.1816,1.6865-.4287,2.2578-.7402.5703-.3115.9854-.6787,1.2451-1.1025s.3887-.8779.3887-1.3623Z" style="fill:#c1d72d; stroke-width:0px;"/><path d="M230.6133,18.5528c0,1.125-.1035,2.335-.3105,3.6328-.208,1.2969-.5283,2.5859-.9609,3.8662s-.9854,2.5127-1.6602,3.6973c-.6748,1.1855-1.4834,2.2275-2.4258,3.127-.9434.8994-2.0244,1.6182-3.2441,2.1533-1.2197.5361-2.5908.8047-4.1123.8047-.6924,0-1.3408-.0693-1.9463-.207-.6055-.1387-1.1641-.334-1.6738-.584-.5107-.251-.9727-.5449-1.3887-.8828-.415-.3369-.7783-.6963-1.0898-1.0762l-2.0498,10.457c-.0342.1729-.1162.3281-.2461.4668s-.3291.2549-.5967.3506c-.2686.0947-.6191.168-1.0508.2207-.4326.0518-.9697.0771-1.6094.0771s-1.1592-.0254-1.5566-.0771c-.3984-.0527-.7139-.126-.9473-.2207-.2334-.0957-.3848-.2119-.4541-.3506-.0684-.1387-.0859-.2939-.0518-.4668l6.4873-32.3574c.0684-.3633.3369-.623.8037-.7783.4678-.1562,1.2373-.2344,2.3096-.2344.5361,0,.9736.0225,1.3105.0654.3379.043.6055.1035.8047.1816.1982.0781.333.1816.4023.3115.0684.1299.0859.2813.0518.4541l-.7266,3.7627c.2598-.5713.6699-1.1641,1.2324-1.7783.5615-.6133,1.2363-1.1758,2.0234-1.6865.7871-.5098,1.6523-.9297,2.5957-1.2578.9424-.3291,1.915-.4932,2.9189-.4932,1.332,0,2.4521.2295,3.3604.6875s1.6426,1.0859,2.2051,1.8809c.5625.7959.9688,1.7305,1.2197,2.8027s.376,2.2227.376,3.4512ZM223.8936,19.1231c0-.5879-.0479-1.124-.1436-1.6084-.0947-.4844-.251-.8955-.4668-1.2324-.2168-.3379-.4932-.5928-.8301-.7656-.3379-.1729-.749-.2598-1.2324-.2598-.7783,0-1.5615.2295-2.3486.6875-.7871.459-1.5264,1.082-2.2188,1.8691-.6914.7871-1.3057,1.7041-1.8418,2.75-.5371,1.0469-.917,2.167-1.1416,3.3604l-.7266,3.5293c.6045.9512,1.2754,1.665,2.0107,2.1406.7354.4756,1.5869.7139,2.5557.7139.709,0,1.3623-.1729,1.959-.5195.5967-.3457,1.1328-.8086,1.6094-1.3877.4756-.5801.8906-1.25,1.2451-2.0117.3545-.7607.6484-1.5566.8818-2.3867.2344-.8301.4062-1.665.5195-2.5039.1123-.8389.1689-1.6309.1689-2.375Z" style="fill:#c1d72d; stroke-width:0px;"/><path d="M59.5517,68.2658c50.5803-30.7752,90.4493-42.5859,106.7643-12.6976l-19.902,34.8103c-16.319-42.9686-51.1078-33.9006-86.8623-22.1127Z" style="fill:#fff; fill-rule:evenodd; stroke-width:0px;"/><path d="M21.492,0c3.6911,49.7613,36.5002,53.7974,85.905,38.883C50.6497,68.7338,7.3697,79.4544,0,38.2563L21.492,0Z" style="fill:#c1d72d; fill-rule:evenodd; stroke-width:0px;"/><path d="M228.875,61.3688c0,.0369-.011.0692-.033.0969-.022.0277-.059.0508-.111.0693s-.123.0323-.213.0415c-.091.0093-.202.0139-.335.0139-.137,0-.251-.0046-.341-.0139-.091-.0092-.162-.023-.214-.0415-.051-.0185-.088-.0416-.11-.0693-.023-.0277-.034-.06-.034-.0969v-2.8204c0-.2402-.017-.4286-.052-.5652-.035-.1367-.086-.254-.153-.3519-.066-.0979-.152-.1736-.257-.2272-.106-.0535-.228-.0803-.369-.0803-.177,0-.356.0646-.537.1939-.181.1293-.37.3177-.565.5652v3.2859c0,.0369-.012.0692-.034.0969s-.06.0508-.113.0693c-.054.0185-.125.0323-.214.0415-.088.0093-.201.0139-.338.0139-.136,0-.249-.0046-.338-.0139-.088-.0092-.159-.023-.213-.0415s-.091-.0416-.114-.0693c-.022-.0277-.033-.06-.033-.0969v-4.9427c0-.0369.009-.0692.028-.0969.018-.0277.052-.0508.1-.0693.048-.0185.11-.0323.185-.0416.076-.0092.171-.0138.286-.0138.118,0,.216.0046.293.0138.078.0093.138.0231.18.0416.043.0185.073.0416.092.0693.018.0277.028.06.028.0969v.5708c.273-.2956.551-.5172.833-.665.283-.1477.578-.2216.884-.2216.336,0,.62.0554.851.1662.231.1108.417.2614.559.4516.143.1903.245.4128.308.6677.063.2549.094.5615.094.9198v3.0532ZM221.086,58.3544c.012-.3916-.067-.6991-.235-.9226s-.428-.3352-.779-.3352c-.177,0-.331.0332-.462.0997-.131.0665-.24.1561-.327.2688-.087.1126-.153.2456-.2.3989-.046.1533-.073.3168-.08.4904h2.083ZM222.438,58.7534c0,.1699-.037.2955-.113.3768-.076.0812-.18.1219-.313.1219h-3.009c0,.2105.025.4017.075.5735.05.1717.129.3177.238.4377.109.1201.249.2115.421.2743.172.0628.378.0942.618.0942.244,0,.458-.0176.643-.0526.184-.0351.344-.0739.479-.1164.135-.0425.247-.0813.335-.1164.089-.0351.161-.0526.216-.0526.034,0,.061.0065.084.0194.022.0129.04.036.055.0692.015.0333.025.0804.03.1413.006.061.009.1376.009.23,0,.0813-.002.1505-.006.2078-.004.0572-.009.1062-.016.1468-.008.0407-.019.0748-.034.1025-.014.0277-.034.0545-.058.0804-.024.0258-.089.0609-.197.1053-.107.0443-.243.0877-.41.1302-.166.0425-.356.0794-.57.1108-.215.0314-.444.0471-.687.0471-.44,0-.825-.0554-1.156-.1662-.33-.1109-.607-.2789-.828-.5043-.222-.2253-.387-.5098-.496-.8533-.109-.3435-.164-.7462-.164-1.2079,0-.4396.058-.8358.172-1.1886.115-.3528.281-.652.499-.8977.218-.2456.483-.4331.795-.5624.312-.1293.664-.1939,1.056-.1939.413,0,.767.0609,1.061.1828.293.1219.534.2909.723.507.188.2161.327.472.415.7675.089.2955.133.6169.133.9641v.2217ZM211.991,58.3544c.011-.3916-.067-.6991-.235-.9226s-.428-.3352-.779-.3352c-.177,0-.331.0332-.462.0997-.132.0665-.241.1561-.327.2688-.087.1126-.154.2456-.2.3989-.046.1533-.073.3168-.08.4904h2.083ZM213.343,58.7534c0,.1699-.038.2955-.113.3768-.076.0812-.18.1219-.313.1219h-3.009c0,.2105.025.4017.075.5735.049.1717.129.3177.238.4377.109.1201.249.2115.421.2743.172.0628.378.0942.618.0942.244,0,.458-.0176.643-.0526.184-.0351.344-.0739.479-.1164.135-.0425.246-.0813.335-.1164.089-.0351.161-.0526.216-.0526.033,0,.061.0065.083.0194.023.0129.041.036.056.0692.015.0333.025.0804.03.1413.006.061.009.1376.009.23,0,.0813-.002.1505-.006.2078-.004.0572-.009.1062-.017.1468-.007.0407-.018.0748-.033.1025-.015.0277-.034.0545-.058.0804-.024.0258-.09.0609-.197.1053-.107.0443-.244.0877-.41.1302-.166.0425-.356.0794-.571.1108-.214.0314-.443.0471-.687.0471-.439,0-.824-.0554-1.155-.1662-.331-.1109-.607-.2789-.828-.5043-.222-.2253-.387-.5098-.496-.8533-.109-.3435-.164-.7462-.164-1.2079,0-.4396.058-.8358.172-1.1886.115-.3528.281-.652.499-.8977.218-.2456.483-.4331.795-.5624.312-.1293.664-.1939,1.055-.1939.414,0,.768.0609,1.062.1828.293.1219.534.2909.723.507.188.2161.327.472.415.7675.089.2955.133.6169.133.9641v.2217ZM206.909,61.3688c0,.0369-.011.0692-.033.0969-.022.0277-.06.0508-.114.0693-.053.0185-.125.0323-.213.0415-.089.0093-.202.0139-.338.0139-.137,0-.25-.0046-.338-.0139-.089-.0092-.16-.023-.214-.0415-.053-.0185-.091-.0416-.113-.0693-.022-.0277-.033-.06-.033-.0969v-7.2865c0-.037.011-.0702.033-.0998.022-.0295.06-.0545.113-.0748.054-.0203.125-.036.214-.0471.088-.0111.201-.0166.338-.0166.136,0,.249.0055.338.0166.088.0111.16.0268.213.0471.054.0203.092.0453.114.0748.022.0296.033.0628.033.0998v7.2865ZM202.292,59.2687h-.532c-.225,0-.417.0166-.576.0499-.159.0332-.288.0831-.388.1496-.1.0665-.173.1468-.219.241-.046.0942-.069.2023-.069.3242,0,.2068.065.3694.196.4876.132.1182.314.1773.546.1773.196,0,.376-.0499.54-.1496.165-.0998.332-.2457.502-.4378v-.8422ZM203.661,61.3854c0,.0517-.019.0923-.056.1219-.037.0295-.095.0508-.174.0637-.08.0129-.197.0194-.352.0194-.166,0-.287-.0065-.363-.0194-.076-.0129-.129-.0342-.161-.0637-.031-.0296-.047-.0702-.047-.1219v-.3934c-.203.2179-.435.3878-.695.5097-.261.1219-.55.1829-.868.1829-.262,0-.503-.0342-.723-.1025-.219-.0684-.41-.1699-.57-.3048-.161-.1348-.286-.302-.374-.5014-.089-.1995-.133-.4322-.133-.6982,0-.2881.056-.5384.169-.7508.112-.2124.28-.3879.504-.5264.223-.1386.501-.2411.834-.3076.332-.0665.718-.0997,1.158-.0997h.482v-.2992c0-.1552-.016-.2909-.047-.4073-.032-.1163-.083-.2133-.155-.2909-.072-.0776-.168-.1348-.288-.1718-.12-.0369-.269-.0554-.446-.0554-.233,0-.441.0259-.624.0776-.183.0517-.344.109-.485.1718-.14.0628-.257.12-.352.1717-.094.0518-.17.0776-.23.0776-.04,0-.076-.0129-.108-.0388-.031-.0258-.057-.0628-.077-.1108-.02-.048-.036-.1071-.047-.1773-.011-.0702-.017-.1478-.017-.2327,0-.1145.009-.205.028-.2715.018-.0665.053-.1266.105-.1801.052-.0536.142-.1127.272-.1773.129-.0647.28-.1247.454-.1801.174-.0554.363-.1007.568-.1358.205-.0351.416-.0526.634-.0526.388,0,.72.0378.995.1136.275.0757.502.1921.679.3491s.306.3592.388.6067c.081.2475.122.5412.122.881v3.3247ZM198.048,60.5819c0,.0961-.003.1764-.008.2411-.006.0646-.013.1191-.022.1634-.01.0443-.021.0804-.034.1081-.012.0277-.041.0628-.085.1053-.045.0424-.12.0942-.228.1551-.107.061-.229.1154-.365.1635-.137.048-.286.0868-.446.1163-.161.0296-.326.0444-.496.0444-.381,0-.718-.0592-1.012-.1774-.293-.1182-.54-.2927-.739-.5236-.2-.2309-.35-.5125-.452-.845-.101-.3325-.152-.713-.152-1.1415,0-.495.062-.9225.185-1.2827.124-.3602.297-.6585.518-.8949.222-.2364.484-.4119.787-.5264.303-.1145.636-.1718.998-.1718.147,0,.292.013.435.0388.142.0259.275.061.399.1053.123.0443.234.0942.332.1496.098.0554.167.1034.208.1441.041.0406.069.0748.086.1025.016.0277.029.0637.039.108.009.0444.016.0988.022.1635.005.0646.008.1431.008.2355,0,.2142-.018.3648-.055.4516-.037.0868-.085.1302-.144.1302-.063,0-.13-.0259-.2-.0776-.07-.0517-.153-.109-.249-.1718-.096-.0627-.211-.12-.344-.1717-.133-.0517-.292-.0776-.476-.0776-.362,0-.639.1395-.832.4184-.192.2789-.288.688-.288,1.2273,0,.266.024.5005.072.7037.048.2032.12.3731.214.5098s.212.2392.354.3075c.143.0684.308.1025.496.1025.192,0,.358-.0286.496-.0859.139-.0572.26-.1209.363-.1911.104-.0702.19-.1339.261-.1912.07-.0572.129-.0859.177-.0859.033,0,.061.0093.083.0277.022.0185.04.0527.053.1025.013.0499.023.1136.03.1912s.011.1773.011.2992ZM192.905,59.9724c0,.2808-.053.5283-.158.7425-.105.2143-.254.3934-.446.5375s-.419.2521-.682.3241c-.262.0721-.546.1081-.853.1081-.185,0-.361-.0139-.529-.0416s-.319-.0628-.452-.1052c-.133-.0425-.243-.0859-.332-.1303-.089-.0443-.153-.0858-.194-.1246s-.072-.0998-.094-.1829c-.022-.0831-.034-.2059-.034-.3685,0-.1071.004-.193.012-.2576.007-.0647.018-.1164.033-.1552.015-.0388.033-.0646.055-.0776.022-.0129.05-.0193.083-.0193.041,0,.101.023.18.0692.08.0462.179.097.297.1524.118.0554.256.1071.413.1551.157.0481.335.0721.534.0721.126,0,.238-.0129.336-.0388.098-.0259.182-.0628.255-.1108.072-.0481.126-.109.163-.1829s.055-.1588.055-.2549c0-.1108-.034-.2059-.102-.2853-.068-.0795-.159-.1487-.272-.2078-.112-.0591-.24-.1145-.382-.1663-.142-.0517-.288-.1089-.438-.1717-.149-.0628-.295-.1349-.437-.2161-.143-.0813-.27-.181-.383-.2993-.112-.1182-.203-.2604-.271-.4266-.069-.1662-.103-.3657-.103-.5984,0-.2365.046-.4535.139-.6511.092-.1977.225-.3667.399-.507.173-.1404.385-.2494.634-.327.249-.0775.529-.1163.84-.1163.155,0,.305.0111.451.0332.146.0222.278.0499.396.0831.119.0333.218.0693.3.1081.081.0388.139.072.174.0997.035.0277.06.0554.075.0832.015.0277.026.0609.033.0997.008.0388.014.0868.02.1441.005.0572.008.1283.008.2133,0,.0997-.003.181-.008.2438-.006.0628-.015.1127-.028.1496s-.031.0619-.053.0748-.048.0194-.077.0194c-.034,0-.085-.0194-.155-.0582-.071-.0388-.158-.0803-.264-.1247-.105-.0443-.227-.0858-.365-.1246-.139-.0388-.297-.0582-.474-.0582-.126,0-.235.0129-.327.0388-.092.0258-.168.0628-.227.1108-.059.048-.104.1044-.133.169-.03.0647-.045.1339-.045.2078,0,.1145.036.2106.106.2881.07.0776.162.1459.277.205.114.0592.244.1146.39.1663.146.0517.294.108.444.169.149.0609.297.132.443.2133.146.0813.276.181.391.2992.114.1182.206.2595.277.4239.07.1644.105.3593.105.5846ZM227.658,71.718c.011-.3916-.067-.6991-.235-.9226-.168-.2235-.428-.3353-.779-.3353-.177,0-.331.0333-.462.0998-.132.0665-.241.1561-.327.2687-.087.1127-.154.2457-.2.399s-.073.3168-.08.4904h2.083ZM229.01,72.1169c0,.17-.038.2956-.113.3768-.076.0813-.18.1219-.313.1219h-3.009c0,.2106.025.4018.075.5735.049.1718.129.3177.238.4378.109.12.249.2115.421.2743.172.0627.378.0941.618.0941.244,0,.458-.0175.643-.0526.184-.0351.344-.0739.479-.1164.135-.0424.246-.0812.335-.1163.089-.0351.161-.0527.216-.0527.033,0,.061.0065.083.0194.022.013.041.0361.056.0693.015.0332.025.0803.03.1413.006.0609.009.1376.009.23,0,.0812-.002.1505-.006.2077-.004.0573-.009.1062-.017.1469-.007.0406-.018.0748-.033.1025s-.034.0545-.058.0803c-.024.0259-.09.061-.197.1053-.107.0443-.244.0877-.41.1302-.166.0425-.356.0795-.571.1109-.214.0314-.443.0471-.687.0471-.439,0-.824-.0555-1.155-.1663-.331-.1108-.607-.2789-.828-.5042-.222-.2254-.387-.5098-.496-.8533-.109-.3436-.164-.7462-.164-1.208,0-.4396.058-.8358.172-1.1886.115-.3527.281-.652.499-.8976.218-.2457.483-.4331.795-.5624.312-.1293.664-.194,1.055-.194.414,0,.768.061,1.062.1829.293.1219.534.2909.723.507.188.2161.327.4719.415.7674.089.2956.133.6169.133.9642v.2216ZM222.013,74.7323c0,.037-.011.0693-.033.097-.022.0277-.06.0508-.113.0692-.054.0185-.125.0324-.214.0416-.088.0092-.201.0139-.338.0139-.136,0-.249-.0047-.338-.0139-.088-.0092-.159-.0231-.213-.0416-.054-.0184-.091-.0415-.114-.0692-.022-.0277-.033-.06-.033-.097v-7.2865c0-.0369.011-.0702.033-.0997.023-.0296.06-.0545.114-.0748.054-.0204.125-.0361.213-.0471.089-.0111.202-.0167.338-.0167.137,0,.25.0056.338.0167.089.011.16.0267.214.0471.053.0203.091.0452.113.0748.022.0295.033.0628.033.0997v7.2865ZM217.938,68.1218c0,.2586-.049.4387-.147.5403s-.285.1524-.562.1524c-.274,0-.458-.049-.554-.1469-.096-.0979-.144-.2706-.144-.5181,0-.2659.048-.4488.146-.5485.098-.0998.284-.1496.557-.1496.277,0,.464.0489.56.1468.096.0979.144.2724.144.5236ZM215.771,68.1218c0,.2586-.049.4387-.146.5403-.098.1016-.284.1524-.557.1524-.277,0-.464-.049-.56-.1469-.096-.0979-.144-.2706-.144-.5181,0-.2659.05-.4488.15-.5485.099-.0998.284-.1496.554-.1496.28,0,.468.0489.562.1468.094.0979.141.2724.141.5236ZM217.179,71.718c.011-.3916-.068-.6991-.236-.9226-.168-.2235-.427-.3353-.778-.3353-.178,0-.332.0333-.463.0998s-.24.1561-.327.2687c-.087.1127-.153.2457-.199.399-.046.1533-.073.3168-.081.4904h2.084ZM218.531,72.1169c0,.17-.038.2956-.114.3768-.075.0813-.18.1219-.313.1219h-3.009c0,.2106.025.4018.075.5735.05.1718.129.3177.238.4378.109.12.25.2115.422.2743.171.0627.377.0941.617.0941.244,0,.458-.0175.643-.0526.185-.0351.345-.0739.479-.1164.135-.0424.247-.0812.336-.1163.088-.0351.16-.0527.216-.0527.033,0,.061.0065.083.0194.022.013.041.0361.055.0693.015.0332.025.0803.031.1413.005.0609.008.1376.008.23,0,.0812-.002.1505-.005.2077-.004.0573-.01.1062-.017.1469-.007.0406-.019.0748-.033.1025-.015.0277-.034.0545-.058.0803-.024.0259-.09.061-.197.1053-.107.0443-.244.0877-.41.1302-.166.0425-.357.0795-.571.1109-.214.0314-.443.0471-.687.0471-.44,0-.825-.0555-1.155-.1663-.331-.1108-.607-.2789-.829-.5042-.221-.2254-.387-.5098-.496-.8533-.109-.3436-.163-.7462-.163-1.208,0-.4396.057-.8358.172-1.1886.114-.3527.28-.652.498-.8976.218-.2457.483-.4331.795-.5624.313-.1293.664-.194,1.056-.194.414,0,.767.061,1.061.1829.294.1219.535.2909.723.507.189.2161.327.4719.416.7674.089.2956.133.6169.133.9642v.2216ZM211.666,68.1163c0,.2807-.057.4747-.172.5818-.114.1071-.327.1607-.637.1607-.314,0-.525-.0517-.634-.1552-.109-.1034-.164-.29-.164-.5596,0-.2808.056-.4756.169-.5846.113-.109.326-.1635.64-.1635.31,0,.521.0527.632.158.111.1052.166.2927.166.5624ZM211.561,74.7323c0,.037-.011.0693-.033.097-.023.0277-.06.0508-.114.0692-.054.0185-.125.0324-.213.0416-.089.0092-.202.0139-.338.0139-.137,0-.25-.0047-.338-.0139-.089-.0092-.16-.0231-.214-.0416-.053-.0184-.091-.0415-.113-.0692-.022-.0277-.034-.06-.034-.097v-4.9315c0-.037.012-.0693.034-.097s.06-.0517.113-.072c.054-.0204.125-.0361.214-.0471.088-.0111.201-.0167.338-.0167.136,0,.249.0056.338.0167.088.011.159.0267.213.0471.054.0203.091.0443.114.072.022.0277.033.06.033.097v4.9315ZM208.186,73.9455c0,.096-.002.1764-.008.241-.005.0647-.013.1191-.022.1635-.009.0443-.02.0803-.033.108-.013.0277-.042.0628-.086.1053-.045.0425-.12.0942-.227.1552-.107.0609-.229.1154-.366.1634-.137.048-.285.0868-.446.1164-.161.0295-.326.0443-.496.0443-.381,0-.718-.0591-1.011-.1773-.294-.1182-.541-.2928-.74-.5236-.2-.2309-.35-.5126-.452-.845-.101-.3325-.152-.713-.152-1.1415,0-.495.062-.9226.186-1.2828.123-.3601.296-.6584.518-.8948.221-.2365.484-.4119.787-.5264.302-.1146.635-.1718.997-.1718.148,0,.293.0129.435.0388.142.0258.275.0609.399.1052.124.0444.234.0942.332.1497.098.0554.167.1034.208.144.041.0407.069.0748.086.1025s.03.0638.039.1081.016.0988.022.1634c.005.0647.008.1432.008.2355,0,.2143-.018.3648-.055.4516-.037.0868-.085.1303-.144.1303-.063,0-.13-.0259-.2-.0776-.07-.0517-.153-.109-.249-.1718-.096-.0628-.211-.1201-.344-.1718s-.291-.0775-.476-.0775c-.362,0-.639.1394-.831.4183-.192.2789-.288.688-.288,1.2274,0,.2659.024.5005.072.7037.048.2031.119.3731.213.5097.094.1367.212.2392.355.3076.142.0683.307.1025.496.1025.192,0,.357-.0286.495-.0859.139-.0573.26-.121.363-.1912.104-.0702.191-.1339.261-.1911.07-.0573.129-.0859.177-.0859.033,0,.061.0092.083.0277.022.0185.04.0526.053.1025s.023.1136.03.1912c.008.0775.011.1773.011.2992ZM201.998,74.7323c0,.037-.011.0693-.033.097-.022.0277-.059.0508-.111.0692-.051.0185-.122.0324-.213.0416-.091.0092-.202.0139-.335.0139-.137,0-.251-.0047-.341-.0139-.091-.0092-.162-.0231-.213-.0416-.052-.0184-.089-.0415-.111-.0692-.022-.0277-.033-.06-.033-.097v-2.8204c0-.2401-.018-.4285-.053-.5652-.035-.1367-.086-.2539-.152-.3518-.067-.0979-.153-.1737-.258-.2272-.105-.0536-.228-.0804-.369-.0804-.177,0-.356.0647-.537.194s-.369.3177-.565.5652v3.2858c0,.037-.011.0693-.033.097-.023.0277-.061.0508-.114.0692-.054.0185-.125.0324-.213.0416-.089.0092-.202.0139-.338.0139-.137,0-.25-.0047-.338-.0139-.089-.0092-.16-.0231-.214-.0416-.053-.0184-.091-.0415-.113-.0692-.023-.0277-.034-.06-.034-.097v-4.9426c0-.037.01-.0693.028-.097.019-.0277.052-.0508.1-.0693.048-.0184.11-.0323.185-.0415.076-.0092.171-.0139.286-.0139.118,0,.216.0047.294.0139.077.0092.137.0231.18.0415.042.0185.073.0416.091.0693.019.0277.028.06.028.097v.5707c.273-.2955.551-.5172.834-.6649.282-.1478.577-.2217.883-.2217.337,0,.62.0554.851.1663.231.1108.417.2613.56.4516.142.1902.244.4128.307.6677.063.2549.094.5615.094.9198v3.0531ZM193.529,72.6322h-.532c-.226,0-.418.0167-.577.0499-.159.0333-.288.0831-.388.1496-.099.0665-.172.1469-.218.2411-.047.0942-.07.2022-.07.3241,0,.2069.066.3694.197.4876.131.1182.313.1773.546.1773.196,0,.376-.0498.54-.1496.164-.0997.332-.2456.502-.4377v-.8423ZM194.897,74.7489c0,.0518-.018.0924-.055.1219-.037.0296-.095.0508-.175.0638-.079.0129-.196.0194-.352.0194-.166,0-.287-.0065-.363-.0194-.075-.013-.129-.0342-.16-.0638-.032-.0295-.047-.0701-.047-.1219v-.3934c-.204.218-.435.3879-.696.5098-.26.1219-.549.1829-.867.1829-.262,0-.503-.0342-.723-.1026-.22-.0683-.41-.1699-.571-.3047-.16-.1348-.285-.302-.374-.5015-.088-.1995-.133-.4322-.133-.6982,0-.2881.057-.5384.169-.7508.113-.2124.281-.3878.504-.5264.224-.1385.502-.241.834-.3075.333-.0665.719-.0997,1.158-.0997h.483v-.2993c0-.1551-.016-.2909-.048-.4072-.031-.1164-.083-.2134-.155-.2909-.072-.0776-.168-.1349-.288-.1718-.12-.0369-.269-.0554-.446-.0554-.233,0-.44.0258-.623.0776-.183.0517-.345.1089-.485.1717-.141.0628-.258.1201-.352.1718-.094.0517-.171.0776-.23.0776-.041,0-.077-.013-.108-.0388-.031-.0259-.057-.0628-.078-.1108-.02-.0481-.036-.1072-.047-.1773-.011-.0702-.016-.1478-.016-.2328,0-.1145.009-.205.027-.2715.019-.0665.054-.1265.106-.1801.051-.0535.142-.1126.271-.1773.129-.0646.281-.1247.455-.1801.173-.0554.363-.1006.568-.1357.205-.0351.416-.0527.634-.0527.388,0,.719.0379.995.1136.275.0758.501.1921.678.3491.178.157.307.3593.388.6068.082.2475.122.5411.122.881v3.3246ZM188.337,74.7323c0,.037-.011.0693-.033.097-.022.0277-.059.0508-.111.0692-.051.0185-.123.0324-.213.0416-.091.0092-.202.0139-.335.0139-.137,0-.251-.0047-.341-.0139-.091-.0092-.162-.0231-.213-.0416-.052-.0184-.089-.0415-.111-.0692-.022-.0277-.033-.06-.033-.097v-2.8204c0-.2401-.018-.4285-.053-.5652-.035-.1367-.086-.2539-.152-.3518-.067-.0979-.153-.1737-.258-.2272-.105-.0536-.228-.0804-.369-.0804-.177,0-.356.0647-.537.194s-.369.3177-.565.5652v3.2858c0,.037-.011.0693-.034.097-.022.0277-.06.0508-.113.0692-.054.0185-.125.0324-.213.0416-.089.0092-.202.0139-.338.0139-.137,0-.25-.0047-.338-.0139-.089-.0092-.16-.0231-.214-.0416-.053-.0184-.091-.0415-.113-.0692-.023-.0277-.034-.06-.034-.097v-4.9426c0-.037.01-.0693.028-.097.019-.0277.052-.0508.1-.0693.048-.0184.11-.0323.185-.0415.076-.0092.171-.0139.286-.0139.118,0,.216.0047.293.0139.078.0092.138.0231.181.0415.042.0185.073.0416.091.0693.018.0277.028.06.028.097v.5707c.273-.2955.551-.5172.834-.6649.282-.1478.577-.2217.883-.2217.337,0,.62.0554.851.1663.231.1108.417.2613.56.4516.142.1902.244.4128.307.6677s.094.5615.094.9198v3.0531ZM181.313,74.7323c0,.037-.011.0693-.033.097-.022.0277-.059.0508-.111.0692-.052.0185-.123.0324-.213.0416-.091.0092-.203.0139-.335.0139-.137,0-.251-.0047-.341-.0139-.091-.0092-.162-.0231-.214-.0416-.051-.0184-.088-.0415-.11-.0692-.023-.0277-.034-.06-.034-.097v-4.0006h-1.834v4.0006c0,.037-.011.0693-.033.097-.022.0277-.059.0508-.111.0692-.052.0185-.123.0324-.213.0416-.091.0092-.204.0139-.341.0139-.133,0-.245-.0047-.335-.0139-.091-.0092-.163-.0231-.216-.0416-.054-.0184-.091-.0415-.111-.0692-.02-.0277-.031-.06-.031-.097v-4.0006h-.62c-.07,0-.123-.0434-.158-.1303-.035-.0868-.053-.2318-.053-.4349,0-.1072.005-.1977.014-.2715.009-.0739.022-.1321.039-.1746.017-.0425.039-.0729.066-.0914.028-.0185.06-.0277.097-.0277h.615v-.4378c0-.3361.035-.6298.103-.881.068-.2512.173-.4608.313-.6289.14-.1681.318-.2937.532-.3768.214-.0831.467-.1247.759-.1247.081,0,.164.0037.247.0111.083.0074.161.0185.235.0333.074.0147.139.0314.194.0498.055.0185.093.0379.114.0582.02.0203.037.0434.05.0693.012.0258.024.0591.033.0997.009.0406.015.0933.019.1579.004.0647.006.145.006.2411,0,.1773-.01.302-.031.374-.02.072-.06.108-.119.108-.022,0-.047-.0036-.075-.011-.027-.0074-.061-.0167-.099-.0277-.039-.0111-.084-.0213-.136-.0305-.052-.0093-.117-.0139-.194-.0139-.196,0-.338.0665-.427.1995-.088.133-.133.3528-.133.6594v.471h2.804c.14,0,.246.0305.316.0914.07.061.105.1579.105.2909v4.7487ZM181.418,68.1274c0,.1366-.012.2521-.036.3463s-.065.1699-.124.2272c-.059.0572-.14.0979-.241.1219-.102.024-.228.036-.38.036-.151,0-.279-.012-.382-.036-.104-.024-.186-.0647-.247-.1219-.061-.0573-.103-.133-.127-.2272s-.036-.2097-.036-.3463c0-.133.012-.2457.036-.338.024-.0924.066-.1681.127-.2272.061-.0591.143-.1016.247-.1275.103-.0258.231-.0388.382-.0388.152,0,.278.013.38.0388.101.0259.182.0684.241.1275.059.0591.1.1348.124.2272.024.0923.036.205.036.338ZM227.493,84.5873c0-.266-.074-.4728-.222-.6206-.148-.1478-.357-.2216-.626-.2216-.137,0-.257.0231-.36.0693-.104.0462-.19.109-.258.1884-.068.0794-.119.1718-.152.2771-.034.1053-.05.2152-.05.3297,0,.2512.074.4497.221.5957.148.1459.353.2189.615.2189.141,0,.263-.0222.366-.0665.103-.0443.189-.1053.258-.1829.068-.0776.12-.1671.155-.2687s.053-.2078.053-.3186ZM227.819,88.5326c0-.1662-.066-.2937-.199-.3823-.133-.0886-.316-.1367-.549-.1441l-.991-.0277c-.097.0702-.173.1376-.23.2023-.058.0646-.104.1265-.139.1856-.035.0591-.058.1164-.069.1718-.011.0554-.017.1127-.017.1718,0,.1847.093.3251.28.4211.187.096.45.1441.79.1441.21,0,.387-.0212.532-.0637.144-.0425.26-.0988.349-.169.088-.0702.151-.1487.188-.2355.037-.0868.055-.1782.055-.2743ZM229.282,83.4182c0,.1773-.02.3085-.061.3934-.04.085-.09.1274-.149.1274h-.582c.081.0887.139.1893.174.302.036.1127.053.23.053.3519,0,.2881-.048.544-.144.7674-.096.2235-.234.4119-.413.5652-.179.1533-.395.2697-.648.3491-.253.0794-.535.1191-.845.1191-.159,0-.31-.0194-.454-.0582-.145-.0388-.255-.084-.333-.1358-.044.048-.084.1053-.119.1718-.035.0665-.053.1404-.053.2216,0,.1071.047.1949.142.2632.094.0683.226.1062.396.1136l1.202.0443c.281.0111.531.0508.751.1191s.404.1644.554.2881c.15.1237.264.2724.344.4461.079.1736.119.3712.119.5929,0,.2438-.054.4738-.161.6899-.107.2161-.268.4036-.482.5624s-.483.2844-.806.3768c-.323.0924-.701.1385-1.133.1385-.421,0-.781-.0332-1.078-.0997-.297-.0665-.541-.1588-.732-.2771-.19-.1182-.328-.2595-.415-.4239-.087-.1644-.13-.3445-.13-.5403,0-.1219.015-.2383.047-.3491.031-.1108.077-.217.138-.3186.061-.1016.136-.1986.225-.2909.088-.0924.19-.181.304-.266-.158-.085-.281-.2004-.368-.3463-.087-.1459-.13-.3057-.13-.4793,0-.2179.05-.4165.149-.5957.1-.1792.229-.3408.388-.4849-.129-.1293-.232-.2844-.31-.4654-.078-.181-.116-.4063-.116-.676,0-.2881.05-.5458.152-.773.102-.2272.243-.4193.424-.5763.181-.157.397-.2771.648-.3602.251-.0831.528-.1247.831-.1247.155,0,.304.0092.446.0277.143.0185.275.0443.397.0776h1.568c.063,0,.113.0406.152.1219.039.0813.058.2179.058.41ZM223.288,88.0173c0,.0369-.011.0693-.033.097-.022.0277-.059.0508-.111.0693-.051.0185-.123.0323-.213.0416-.091.0092-.202.0138-.335.0138-.137,0-.251-.0046-.341-.0138-.091-.0092-.162-.0231-.213-.0416-.052-.0185-.089-.0416-.111-.0693-.022-.0277-.033-.06-.033-.097v-2.8204c0-.2401-.018-.4285-.053-.5652s-.086-.254-.152-.3519c-.067-.0979-.153-.1736-.258-.2272-.105-.0536-.228-.0803-.369-.0803-.177,0-.356.0647-.537.1939-.181.1293-.369.3177-.565.5652v3.2859c0,.0369-.011.0693-.033.097-.023.0277-.061.0508-.114.0693-.054.0185-.125.0323-.213.0416-.089.0092-.202.0138-.338.0138-.137,0-.25-.0046-.338-.0138-.089-.0092-.16-.0231-.214-.0416-.053-.0185-.091-.0416-.113-.0693-.023-.0277-.034-.06-.034-.097v-4.9426c0-.0369.01-.0693.028-.097.019-.0277.052-.0508.1-.0693.048-.0185.11-.0323.185-.0416.076-.0092.171-.0138.286-.0138.118,0,.216.0046.294.0138.077.0092.137.0231.18.0416.042.0185.073.0416.091.0693.018.0277.028.06.028.097v.5707c.273-.2955.551-.5172.834-.6649.282-.1478.577-.2216.883-.2216.337,0,.62.0554.851.1662.231.1108.417.2613.56.4516.142.1902.244.4128.307.6677.063.2549.094.5615.094.9198v3.0531ZM217.112,81.4012c0,.2807-.058.4747-.172.5818-.115.1071-.327.1607-.637.1607-.314,0-.526-.0517-.635-.1551s-.163-.29-.163-.5597c0-.2808.056-.4756.169-.5846.112-.109.326-.1635.64-.1635.31,0,.521.0526.631.1579.111.1053.167.2927.167.5624ZM217.006,88.0173c0,.0369-.011.0693-.033.097-.022.0277-.06.0508-.113.0693-.054.0185-.125.0323-.214.0416-.088.0092-.201.0138-.338.0138-.136,0-.249-.0046-.338-.0138-.088-.0092-.16-.0231-.213-.0416-.054-.0185-.092-.0416-.114-.0693-.022-.0277-.033-.06-.033-.097v-4.9316c0-.0369.011-.0693.033-.097.022-.0277.06-.0517.114-.072.053-.0203.125-.036.213-.0471.089-.0111.202-.0166.338-.0166.137,0,.25.0055.338.0166.089.0111.16.0268.214.0471.053.0203.091.0443.113.072.022.0277.033.06.033.097v4.9316ZM214.071,88.0173c0,.0369-.011.0693-.033.097-.022.0277-.059.0508-.111.0693s-.123.0323-.213.0416c-.091.0092-.202.0138-.335.0138-.137,0-.251-.0046-.341-.0138-.091-.0092-.162-.0231-.214-.0416-.051-.0185-.088-.0416-.11-.0693-.023-.0277-.034-.06-.034-.097v-2.8204c0-.2401-.017-.4285-.052-.5652-.035-.1367-.086-.254-.153-.3519-.066-.0979-.152-.1736-.257-.2272-.106-.0536-.228-.0803-.369-.0803-.177,0-.356.0647-.537.1939-.181.1293-.37.3177-.565.5652v3.2859c0,.0369-.012.0693-.034.097-.022.0277-.06.0508-.113.0693-.054.0185-.125.0323-.214.0416-.088.0092-.201.0138-.338.0138-.136,0-.249-.0046-.338-.0138-.088-.0092-.159-.0231-.213-.0416s-.091-.0416-.114-.0693c-.022-.0277-.033-.06-.033-.097v-4.9426c0-.0369.009-.0693.028-.097.018-.0277.052-.0508.1-.0693.048-.0185.11-.0323.185-.0416.076-.0092.171-.0138.286-.0138.118,0,.216.0046.293.0138.078.0092.138.0231.18.0416.043.0185.073.0416.092.0693.018.0277.027.06.027.097v.5707c.274-.2955.552-.5172.834-.6649.283-.1478.578-.2216.884-.2216.336,0,.62.0554.851.1662.231.1108.417.2613.559.4516.143.1902.245.4128.308.6677.063.2549.094.5615.094.9198v3.0531ZM206.681,85.0029c.011-.3916-.067-.6991-.236-.9226-.168-.2235-.427-.3352-.778-.3352-.177,0-.332.0332-.463.0997-.131.0665-.24.1561-.327.2687-.086.1127-.153.2456-.199.399-.046.1533-.073.3168-.081.4904h2.084ZM208.033,85.4019c0,.1699-.038.2955-.114.3768-.075.0813-.18.1219-.313.1219h-3.009c0,.2106.025.4017.075.5735.05.1718.13.3177.239.4377.109.12.249.2115.421.2743.171.0628.377.0942.618.0942.243,0,.458-.0175.642-.0526.185-.0351.345-.0739.48-.1164.134-.0425.246-.0813.335-.1164.088-.0351.16-.0526.216-.0526.033,0,.061.0065.083.0194.022.0129.041.036.055.0693.015.0332.025.0803.031.1413.005.061.008.1376.008.2299,0,.0813-.002.1505-.005.2078-.004.0573-.01.1062-.017.1468-.007.0406-.018.0748-.033.1025-.015.0277-.034.0545-.058.0803-.024.0259-.09.061-.197.1053-.107.0443-.244.0877-.41.1302s-.357.0794-.571.1108-.443.0471-.687.0471c-.44,0-.825-.0554-1.155-.1662-.331-.1108-.607-.2789-.829-.5042-.221-.2253-.387-.5098-.496-.8533-.109-.3435-.163-.7462-.163-1.208,0-.4396.057-.8358.172-1.1885.114-.3528.28-.652.498-.8977.218-.2457.483-.4331.796-.5624.312-.1293.664-.1939,1.055-.1939.414,0,.768.0609,1.061.1828.294.1219.535.2909.723.507.189.2161.327.4719.416.7674.089.2955.133.6169.133.9641v.2216ZM201.906,88.0173c0,.0369-.011.0693-.033.097-.022.0277-.06.0508-.114.0693-.053.0185-.124.0323-.213.0416-.089.0092-.201.0138-.338.0138s-.249-.0046-.338-.0138c-.089-.0092-.16-.0231-.213-.0416-.054-.0185-.092-.0416-.114-.0693-.022-.0277-.033-.06-.033-.097v-7.2865c0-.0369.011-.0702.033-.0997s.06-.0545.114-.0748c.053-.0203.124-.036.213-.0471.089-.0111.201-.0166.338-.0166s.249.0055.338.0166c.089.0111.16.0268.213.0471.054.0203.092.0453.114.0748s.033.0628.033.0997v7.2865ZM199.481,83.5345c0,.133-.004.242-.011.3269-.008.085-.019.1515-.034.1995-.014.048-.034.0813-.058.0997-.024.0185-.054.0277-.091.0277-.03,0-.063-.0065-.1-.0194s-.079-.0268-.125-.0416c-.046-.0148-.097-.0286-.152-.0416-.055-.0129-.116-.0194-.183-.0194-.078,0-.155.0157-.233.0471-.077.0314-.158.0803-.241.1468-.083.0665-.17.1551-.26.266-.091.1108-.188.2475-.291.41v3.0808c0,.0369-.011.0693-.033.097-.022.0277-.06.0508-.114.0693-.053.0185-.125.0323-.213.0416-.089.0092-.202.0138-.338.0138-.137,0-.25-.0046-.338-.0138-.089-.0092-.16-.0231-.214-.0416-.053-.0185-.091-.0416-.113-.0693-.022-.0277-.033-.06-.033-.097v-4.9426c0-.0369.009-.0693.027-.097.019-.0277.052-.0508.1-.0693.048-.0185.11-.0323.186-.0416.075-.0092.171-.0138.285-.0138.118,0,.216.0046.294.0138.077.0092.137.0231.18.0416.042.0185.073.0416.091.0693.019.0277.028.06.028.097v.6151c.129-.1847.251-.3371.366-.4571.114-.1201.223-.2152.327-.2854.103-.0702.206-.1191.31-.1468.103-.0277.207-.0416.31-.0416.048,0,.1.0028.155.0083.056.0055.113.0148.172.0277.059.0129.111.0277.155.0443.045.0166.077.0342.097.0526.021.0185.035.0388.045.061.009.0222.017.0526.024.0914.008.0388.013.097.017.1746.004.0776.006.1828.006.3158ZM193.636,85.0029c.011-.3916-.067-.6991-.235-.9226-.168-.2235-.428-.3352-.779-.3352-.177,0-.331.0332-.462.0997-.131.0665-.24.1561-.327.2687-.087.1127-.154.2456-.2.399-.046.1533-.073.3168-.08.4904h2.083ZM194.988,85.4019c0,.1699-.037.2955-.113.3768-.076.0813-.18.1219-.313.1219h-3.009c0,.2106.025.4017.075.5735.05.1718.129.3177.238.4377.109.12.249.2115.421.2743s.378.0942.618.0942c.244,0,.458-.0175.643-.0526.184-.0351.344-.0739.479-.1164.135-.0425.247-.0813.335-.1164.089-.0351.161-.0526.216-.0526.034,0,.061.0065.083.0194.023.0129.041.036.056.0693.015.0332.025.0803.03.1413.006.061.009.1376.009.2299,0,.0813-.002.1505-.006.2078-.004.0573-.009.1062-.016.1468-.008.0406-.019.0748-.034.1025-.015.0277-.034.0545-.058.0803-.024.0259-.09.061-.197.1053-.107.0443-.243.0877-.41.1302-.166.0425-.356.0794-.57.1108-.215.0314-.444.0471-.687.0471-.44,0-.825-.0554-1.156-.1662-.33-.1108-.607-.2789-.828-.5042-.222-.2253-.387-.5098-.496-.8533-.109-.3435-.164-.7462-.164-1.208,0-.4396.058-.8358.172-1.1885.115-.3528.281-.652.499-.8977.218-.2457.483-.4331.795-.5624.312-.1293.664-.1939,1.056-.1939.413,0,.767.0609,1.061.1828.293.1219.534.2909.723.507.188.2161.327.4719.415.7674.089.2955.133.6169.133.9641v.2216ZM189.538,83.0691c0,.0185-.001.0406-.003.0665s-.006.0545-.011.0859c-.006.0314-.013.0674-.022.1081-.01.0406-.022.0868-.036.1385l-1.486,4.4716c-.018.0628-.043.1136-.074.1524-.032.0388-.083.0693-.155.0914-.072.0222-.17.0369-.294.0443-.124.0074-.285.0111-.485.0111-.196,0-.356-.0046-.479-.0138-.124-.0092-.221-.0249-.291-.0471-.07-.0222-.121-.0526-.153-.0914-.031-.0388-.056-.0877-.074-.1468l-1.485-4.4716c-.023-.0739-.04-.1404-.053-.1995-.013-.0591-.02-.1016-.022-.1274-.002-.0259-.003-.0499-.003-.072,0-.0369.01-.0693.031-.097.02-.0277.056-.0508.108-.0693.051-.0185.122-.0314.213-.0388.09-.0074.204-.0111.341-.0111.151,0,.273.0046.365.0138.093.0092.166.0222.219.0388.054.0166.092.0406.114.072.022.0314.04.0693.055.1136l1.125,3.6294.033.1385.034-.1385,1.108-3.6294c.011-.0443.028-.0822.052-.1136.024-.0314.062-.0554.114-.072.052-.0166.121-.0296.208-.0388.087-.0092.2-.0138.341-.0138.136,0,.248.0037.335.0111.087.0074.154.0203.202.0388.048.0185.081.0415.1.0693.018.0277.028.06.028.097ZM183.81,87.5296c0,.1625-.011.2872-.031.374-.02.0868-.047.1478-.08.1828-.033.0351-.082.0665-.147.0942-.065.0277-.14.0517-.227.072-.087.0203-.181.036-.283.0471-.101.0111-.204.0166-.307.0166-.277,0-.518-.0351-.721-.1053-.203-.0702-.371-.1782-.504-.3242-.133-.1459-.231-.3297-.294-.5513-.062-.2216-.094-.4839-.094-.7868v-2.5323h-.593c-.07,0-.123-.0434-.16-.1302-.037-.0868-.056-.2318-.056-.435,0-.1071.005-.1976.014-.2715.009-.0739.023-.1321.042-.1745.018-.0425.041-.073.069-.0914s.06-.0277.097-.0277h.587v-1.1027c0-.0369.01-.0702.031-.0997.02-.0296.057-.0545.111-.0748.053-.0203.125-.0351.216-.0443.09-.0092.202-.0139.335-.0139.137,0,.25.0046.341.0139.09.0092.161.024.213.0443.052.0203.089.0452.111.0748.022.0295.033.0628.033.0997v1.1027h1.075c.037,0,.069.0092.097.0277s.051.0489.069.0914c.019.0425.033.1007.042.1745.009.0739.014.1644.014.2715,0,.2032-.019.3482-.056.435-.037.0868-.09.1302-.16.1302h-1.081v2.3217c0,.2697.042.4719.127.6067.085.1348.237.2023.455.2023.074,0,.14-.0065.199-.0194.059-.0129.112-.0277.158-.0443.046-.0166.085-.0314.117-.0443.031-.0129.06-.0194.085-.0194.023,0,.044.0065.064.0194.021.0129.036.0388.047.0776.011.0388.022.0914.031.1579.009.0665.014.1514.014.2549ZM179.794,86.6209c0,.2808-.053.5282-.158.7425-.105.2143-.254.3934-.446.5375-.192.1441-.419.2521-.682.3242-.262.072-.546.1081-.853.1081-.185,0-.361-.0138-.529-.0416-.168-.0277-.319-.0628-.452-.1053-.133-.0425-.244-.0859-.332-.1302-.089-.0443-.153-.0859-.194-.1247s-.072-.0997-.094-.1829c-.022-.0831-.034-.2059-.034-.3685,0-.1071.004-.193.012-.2577.007-.0647.018-.1164.033-.1551.015-.0388.033-.0647.055-.0776.022-.0129.05-.0194.083-.0194.041,0,.101.0231.18.0693.08.0462.179.097.297.1524.118.0554.256.1071.413.1551.157.048.335.072.534.072.126,0,.238-.0129.336-.0388.097-.0259.182-.0628.254-.1108.073-.048.127-.109.164-.1829s.055-.1588.055-.2549c0-.1108-.034-.2059-.102-.2854-.069-.0794-.159-.1487-.272-.2078-.112-.0591-.24-.1145-.382-.1662-.142-.0517-.288-.109-.438-.1718-.149-.0628-.295-.1348-.437-.2161-.143-.0813-.27-.181-.383-.2992-.113-.1182-.203-.2604-.271-.4267-.069-.1662-.103-.3657-.103-.5984,0-.2364.046-.4534.139-.6511.092-.1976.225-.3666.399-.507.173-.1404.385-.2493.634-.3269.249-.0776.529-.1164.84-.1164.155,0,.305.0111.451.0332.146.0222.278.0499.396.0831.119.0332.218.0693.3.108.081.0388.139.072.174.0997s.06.0554.075.0831c.015.0277.026.0609.033.0997.008.0388.014.0868.02.1441.005.0573.008.1284.008.2133,0,.0997-.003.181-.008.2438-.006.0628-.015.1127-.028.1496-.013.0369-.031.0619-.053.0748-.022.0129-.048.0194-.077.0194-.034,0-.085-.0194-.156-.0582-.07-.0388-.157-.0803-.263-.1247-.105-.0443-.227-.0859-.365-.1247-.139-.0388-.297-.0582-.474-.0582-.126,0-.235.0129-.327.0388-.092.0259-.168.0628-.227.1108-.059.048-.104.1044-.133.169-.03.0646-.045.1339-.045.2078,0,.1145.035.2106.106.2881.07.0776.162.1459.277.205.114.0591.244.1145.39.1662.146.0517.294.108.444.169.149.0609.297.1321.443.2133.146.0813.276.181.391.2992.114.1182.206.2595.277.4239.07.1644.105.3592.105.5846ZM174.775,88.0173c0,.0369-.011.0693-.033.097-.022.0277-.059.0508-.111.0693s-.123.0323-.213.0416c-.091.0092-.202.0138-.335.0138-.137,0-.251-.0046-.341-.0138-.091-.0092-.162-.0231-.213-.0416-.052-.0185-.089-.0416-.111-.0693-.022-.0277-.034-.06-.034-.097v-2.8204c0-.2401-.017-.4285-.052-.5652s-.086-.254-.153-.3519c-.066-.0979-.152-.1736-.257-.2272-.106-.0536-.228-.0803-.369-.0803-.177,0-.356.0647-.537.1939-.181.1293-.37.3177-.565.5652v3.2859c0,.0369-.011.0693-.034.097-.022.0277-.06.0508-.113.0693-.054.0185-.125.0323-.214.0416-.088.0092-.201.0138-.338.0138-.136,0-.249-.0046-.338-.0138-.088-.0092-.159-.0231-.213-.0416-.053-.0185-.091-.0416-.113-.0693-.023-.0277-.034-.06-.034-.097v-4.9426c0-.0369.009-.0693.028-.097.018-.0277.052-.0508.1-.0693.048-.0185.11-.0323.185-.0416.076-.0092.171-.0138.286-.0138.118,0,.216.0046.293.0138.078.0092.138.0231.18.0416.043.0185.073.0416.092.0693.018.0277.028.06.028.097v.5707c.273-.2955.551-.5172.834-.6649.282-.1478.577-.2216.883-.2216.336,0,.62.0554.851.1662.231.1108.417.2613.56.4516.142.1902.244.4128.307.6677.063.2549.094.5615.094.9198v3.0531ZM167.385,85.0029c.011-.3916-.067-.6991-.235-.9226-.169-.2235-.428-.3352-.779-.3352-.177,0-.332.0332-.463.0997-.131.0665-.24.1561-.327.2687-.086.1127-.153.2456-.199.399-.046.1533-.073.3168-.08.4904h2.083ZM168.737,85.4019c0,.1699-.038.2955-.114.3768-.075.0813-.18.1219-.313.1219h-3.008c0,.2106.025.4017.074.5735.05.1718.13.3177.239.4377.109.12.249.2115.421.2743s.377.0942.618.0942c.243,0,.458-.0175.642-.0526.185-.0351.345-.0739.48-.1164.134-.0425.246-.0813.335-.1164.089-.0351.161-.0526.216-.0526.033,0,.061.0065.083.0194.022.0129.041.036.056.0693.014.0332.024.0803.03.1413.006.061.008.1376.008.2299,0,.0813-.002.1505-.005.2078-.004.0573-.009.1062-.017.1468-.007.0406-.018.0748-.033.1025-.015.0277-.034.0545-.058.0803-.024.0259-.09.061-.197.1053-.107.0443-.244.0877-.41.1302s-.356.0794-.571.1108c-.214.0314-.443.0471-.687.0471-.439,0-.825-.0554-1.155-.1662-.331-.1108-.607-.2789-.829-.5042-.221-.2253-.386-.5098-.495-.8533-.109-.3435-.164-.7462-.164-1.208,0-.4396.057-.8358.172-1.1885.114-.3528.281-.652.499-.8977.217-.2457.483-.4331.795-.5624.312-.1293.664-.1939,1.055-.1939.414,0,.768.0609,1.061.1828.294.1219.535.2909.723.507.189.2161.327.4719.416.7674.089.2955.133.6169.133.9641v.2216ZM162.715,81.4012c0,.2807-.057.4747-.171.5818-.115.1071-.327.1607-.638.1607-.314,0-.525-.0517-.634-.1551-.109-.1034-.163-.29-.163-.5597,0-.2808.056-.4756.169-.5846.112-.109.326-.1635.64-.1635.31,0,.52.0526.631.1579.111.1053.166.2927.166.5624ZM162.61,88.0173c0,.0369-.011.0693-.033.097-.022.0277-.06.0508-.114.0693-.053.0185-.124.0323-.213.0416-.089.0092-.201.0138-.338.0138s-.249-.0046-.338-.0138c-.089-.0092-.16-.0231-.213-.0416-.054-.0185-.092-.0416-.114-.0693-.022-.0277-.033-.06-.033-.097v-4.9316c0-.0369.011-.0693.033-.097.022-.0277.06-.0517.114-.072.053-.0203.124-.036.213-.0471.089-.0111.201-.0166.338-.0166s.249.0055.338.0166c.089.0111.16.0268.213.0471.054.0203.092.0443.114.072.022.0277.033.06.033.097v4.9316ZM158.256,84.7148c-.199-.2512-.39-.4433-.573-.5763-.183-.133-.374-.1995-.574-.1995-.181,0-.337.0453-.468.1358-.131.0905-.236.2115-.316.3629-.079.1515-.138.3205-.177.507-.039.1866-.058.3777-.058.5735,0,.2069.017.4082.05.604.033.1958.087.3703.163.5236.076.1533.177.2761.302.3685.126.0924.285.1385.477.1385.096,0,.189-.0138.28-.0416.09-.0277.182-.0729.277-.1358.094-.0628.191-.145.291-.2466.099-.1016.208-.2263.326-.374v-1.6402ZM159.642,88.0173c0,.0406-.01.0748-.028.1025-.018.0277-.05.0508-.094.0693-.045.0185-.105.0314-.18.0388-.076.0074-.169.0111-.28.0111-.118,0-.214-.0037-.288-.0111-.074-.0074-.134-.0203-.18-.0388-.046-.0185-.08-.0416-.1-.0693-.02-.0277-.031-.0619-.031-.1025v-.5486c-.254.2734-.521.4858-.8.6372-.279.1514-.588.2272-.928.2272-.377,0-.696-.073-.956-.2189-.261-.1459-.473-.3426-.637-.5901-.165-.2475-.284-.5366-.358-.8672-.074-.3306-.111-.6788-.111-1.0445,0-.4396.047-.8349.142-1.1858.094-.3509.231-.6501.412-.8977.181-.2475.407-.4377.676-.5707.27-.133.58-.1995.931-.1995.277,0,.529.0563.754.169s.449.278.67.4959v-2.6763c0-.0369.011-.0702.031-.0997.02-.0295.057-.0545.111-.0748.053-.0203.124-.036.213-.0471.089-.0111.201-.0166.338-.0166s.249.0055.338.0166.159.0268.211.0471c.051.0203.088.0452.11.0748.023.0296.034.0628.034.0997v7.2699ZM187.624,61.3688c0,.0369-.011.0692-.033.0969s-.059.0508-.111.0693-.123.0323-.213.0415c-.091.0093-.202.0139-.335.0139-.137,0-.251-.0046-.341-.0139-.091-.0092-.162-.023-.214-.0415-.051-.0185-.088-.0416-.11-.0693-.023-.0277-.034-.06-.034-.0969v-4.0007h-1.834v4.0007c0,.0369-.011.0692-.033.0969s-.059.0508-.111.0693c-.051.0185-.123.0323-.213.0415-.091.0093-.204.0139-.341.0139-.133,0-.245-.0046-.335-.0139-.091-.0092-.163-.023-.216-.0415-.054-.0185-.091-.0416-.111-.0693s-.03-.06-.03-.0969v-4.0007h-.621c-.07,0-.123-.0434-.158-.1302-.035-.0868-.053-.2318-.053-.435,0-.1071.005-.1976.014-.2715.009-.0739.022-.1321.039-.1745.017-.0425.039-.073.066-.0915.028-.0184.061-.0277.097-.0277h.616v-.4377c0-.3362.034-.6299.102-.881.068-.2512.173-.4609.313-.629.14-.168.318-.2936.532-.3767.214-.0832.467-.1247.759-.1247.081,0,.164.0037.247.0111.083.0073.161.0184.235.0332.074.0148.139.0314.194.0499.056.0184.093.0378.114.0582.02.0203.037.0434.05.0692.013.0259.024.0591.033.0998.009.0406.016.0932.019.1579.004.0646.006.145.006.241,0,.1773-.01.302-.031.374-.02.0721-.06.1081-.119.1081-.022,0-.047-.0037-.075-.0111-.027-.0074-.061-.0166-.099-.0277-.039-.0111-.084-.0212-.136-.0305-.052-.0092-.116-.0138-.194-.0138-.196,0-.338.0665-.427.1995-.088.1329-.133.3527-.133.6593v.471h2.804c.14,0,.246.0305.316.0915.07.0609.105.1579.105.2909v4.7487ZM187.73,54.7638c0,.1367-.013.2521-.037.3463-.024.0942-.065.1699-.124.2272s-.14.0979-.241.1219c-.102.024-.228.036-.38.036-.151,0-.279-.012-.382-.036-.104-.024-.186-.0646-.247-.1219s-.103-.133-.127-.2272-.036-.2096-.036-.3463c0-.133.012-.2456.036-.338.024-.0924.066-.1681.127-.2272.061-.0591.143-.1016.247-.1274.103-.0259.231-.0388.382-.0388.152,0,.278.0129.38.0388.101.0258.182.0683.241.1274.059.0591.1.1348.124.2272.024.0924.037.205.037.338Z" style="fill:#fff; fill-rule:evenodd; stroke-width:0px;"/></g></g></svg>